# xmcd
#
# Track frame offsets:
#	150
#	8690
#	24990
#	108686
#	155657
#	191139
#	194301
#	214110
#	249220
#	284079
#
# Disc length: 3956 seconds
#
# Revision: 1
# Processed by: cddbd v1.5.2PL0 Copyright (c) Steve Scherf et al.
# Submitted via: audiograbber 1.83.01
#
DISCID=8b0f720a
DTITLE=Grateful Dead - 71-12-14 Hill Auditorium, Ann Arbor MI
DYEAR=1900
DGENRE=
TTITLE0=Cryptical Envelopment
TTITLE1=Drums
TTITLE2=The Other One
TTITLE3=Wharf Rat
TTITLE4=Sugar Magnolia
TTITLE5=Star and Stripes Tuning
TTITLE6=You Win Again
TTITLE7=Not Fade Away
TTITLE8=Going Down The Road Feeling Bad
TTITLE9=Not Fade Away
EXTD=
EXTT0=
EXTT1=
EXTT2=
EXTT3=
EXTT4=
EXTT5=
EXTT6=
EXTT7=
EXTT8=
EXTT9=
PLAYORDER=
